<?xml version="1.0" encoding="UTF-8"?>
<svg version="1.1" xmlns="http://www.w3.org/2000/svg" width="338" height="379">
<path d="M0 0 C111.54 0 223.08 0 338 0 C338 125.07 338 250.14 338 379 C226.46 379 114.92 379 0 379 C0 253.93 0 128.86 0 0 Z " fill="#FEFEFE" transform="translate(0,0)"/>
<path d="M0 0 C5.19486512 2.98852326 9.31779099 6.9303088 13.625 11.0625 C15.05027726 12.41459397 16.47606236 13.7661528 17.90234375 15.1171875 C18.59956543 15.77944336 19.29678711 16.44169922 20.01513672 17.12402344 C22.71346053 19.67432112 25.44617503 22.18344017 28.1875 24.6875 C32.28084416 28.42682521 36.36499947 32.17551626 40.4375 35.9375 C40.97785889 36.43660889 41.51821777 36.93571777 42.07495117 37.44995117 C43.16964892 38.46120612 44.26429396 39.47251812 45.35888672 40.48388672 C46.99020187 41.99094817 48.62195809 43.4975303 50.25390625 45.00390625 C51.05828125 45.74640625 51.05828125 45.74640625 51.87890625 46.50390625 C52.95557906 47.49755851 54.03240087 48.49104934 55.109375 49.484375 C57.90910125 52.0671733 60.70527131 54.65367469 63.49609375 57.24609375 C64.07230469 57.78041016 64.64851562 58.31472656 65.2421875 58.86523438 C66.33316803 59.87703084 67.42309811 60.88996176 68.51171875 61.90429688 C71.0692844 64.2740001 73.65689508 66.54265609 76.37890625 68.72265625 C77.24386719 69.47417969 78.10882813 70.22570312 79 71 C79 71.66 79 72.32 79 73 C79.58265625 73.25523437 80.1653125 73.51046875 80.765625 73.7734375 C84.76034748 75.9663446 87.54726898 79.19357591 90 83 C91.39836193 88.27832389 89.61969584 92.41990817 87 97 C84.80078125 99.52734375 84.80078125 99.52734375 82.3125 101.9375 C81.42175781 102.80246094 80.53101563 103.66742188 79.61328125 104.55859375 C76.82192044 107.1663673 73.96557771 109.67458679 71.0625 112.15625 C67.70964151 115.15350228 64.60106244 118.39159634 61.44140625 121.58984375 C58.72797273 124.26854532 55.89222977 126.74608118 52.99609375 129.22265625 C50.73867374 131.23268777 48.62264287 133.34832953 46.5 135.5 C43.77170593 138.26560408 41.01483166 140.91287031 38.0625 143.4375 C34.8896408 146.15619248 31.93661618 149.02751675 29 152 C25.46078083 155.58244627 21.83398252 158.94570076 18.00390625 162.2109375 C15.6900568 164.27671342 13.54085376 166.4674095 11.375 168.6875 C6.15184216 173.97369595 1.42920571 178.05845439 -6.3125 178.3125 C-7.42044922 178.36857422 -7.42044922 178.36857422 -8.55078125 178.42578125 C-15.18288993 177.27283094 -20.22048766 171.16165065 -24.875 166.6875 C-26.39172377 165.24457793 -27.9086557 163.80187463 -29.42578125 162.359375 C-30.18971191 161.63041016 -30.95364258 160.90144531 -31.74072266 160.15039062 C-35.1629478 156.89310091 -38.61222766 153.66502242 -42.0625 150.4375 C-43.3868102 149.19671219 -44.7110289 147.9558267 -46.03515625 146.71484375 C-46.68887207 146.10237793 -47.34258789 145.48991211 -48.01611328 144.85888672 C-51.34475113 141.73997846 -54.67230641 138.61991565 -58 135.5 C-58.9890332 134.5728418 -58.9890332 134.5728418 -59.99804688 133.62695312 C-63.34423809 130.4901033 -66.69005108 127.35285172 -70.03515625 124.21484375 C-70.70135986 123.59029297 -71.36756348 122.96574219 -72.05395508 122.32226562 C-73.38454416 121.07367589 -74.71382692 119.82369246 -76.04174805 118.57226562 C-79.40603204 115.40646815 -82.79421817 112.27472988 -86.234375 109.19140625 C-86.91878662 108.57144775 -87.60319824 107.95148926 -88.30834961 107.31274414 C-89.60257941 106.14211967 -90.90497694 104.98043395 -92.21704102 103.82983398 C-96.21871163 100.18999602 -98.29972588 97.16176409 -100 92 C-100.16909319 87.34993739 -99.09117182 84.73582607 -96.1875 81.25 C-92.15514254 76.9809252 -87.80173424 73.04998999 -83.44140625 69.12109375 C-79.5773317 65.63405715 -75.78961901 62.06754643 -72 58.5 C-66.38895651 53.22585693 -60.74088264 47.99777087 -55.0546875 42.8046875 C-51.53459209 39.58160739 -48.04869821 36.32215506 -44.5625 33.0625 C-39.32283175 28.16366648 -34.07346944 23.27601612 -28.79345703 18.4206543 C-25.99535371 15.84714355 -23.20994201 13.26157678 -20.44140625 10.65625 C-19.85504395 10.10727051 -19.26868164 9.55829102 -18.66455078 8.99267578 C-17.54355377 7.94267207 -16.42583345 6.88915501 -15.31201172 5.83154297 C-10.23313007 1.08877567 -7.06570522 -0.73093502 0 0 Z " fill="#6A80AB" transform="translate(119,71)"/>
<path d="M0 0 C0.74765625 -0.02578125 1.4953125 -0.0515625 2.265625 -0.078125 C9.47207875 0.87367078 14.03817344 6.04172104 19 10.875 C20.51878909 12.33020207 22.0383157 13.78463479 23.55859375 15.23828125 C24.2841748 15.93518066 25.00975586 16.63208008 25.75732422 17.35009766 C28.89615581 20.34279399 32.1262254 23.22795983 35.36328125 26.11328125 C38.18051724 28.63542214 40.96643216 31.19087102 43.75 33.75 C47.37734163 37.08338802 51.01893197 40.39946415 54.6875 43.6875 C59.1420991 47.68448378 63.53918479 51.74074409 67.93115234 55.80615234 C71.99881588 59.56727427 76.1056163 63.28209539 80.23046875 66.98046875 C85.62037666 71.83556409 90.94951805 76.75779542 96.29101562 81.66601562 C101.40310374 86.3623812 106.51885156 91.0532514 111.6875 95.6875 C115.57370854 99.17448327 119.41832352 102.7034301 123.25 106.25 C133.29305892 115.57450868 133.29305892 115.57450868 143.6875 124.5 C147.23619697 127.58837071 149.4575084 129.89909879 150.0625 134.76171875 C150.33310803 140.96033392 149.50706259 145.182175 145.75 150.25 C143.38756938 152.80539009 140.84407137 155.12022756 138.25 157.4375 C136.81092194 158.75218095 135.37343755 160.06860836 133.9375 161.38671875 C133.22851562 162.03560059 132.51953125 162.68448242 131.7890625 163.35302734 C128.86318588 166.07501745 126.05082366 168.90035925 123.25 171.75 C120.23760666 174.80338836 117.21469718 177.79056662 113.9375 180.5625 C109.81295994 184.06446797 106.0542895 187.90864972 102.25 191.75 C97.92671781 196.11531701 93.60323159 200.35613969 88.90234375 204.31640625 C85.7264732 207.1695023 82.75240448 210.21623062 79.75 213.25 C72.46889798 220.60716473 72.46889798 220.60716473 68.8125 223.6875 C64.72378827 227.14038615 61.01265524 230.95077418 57.25 234.75 C52.94812358 239.09364728 48.64692097 243.3104876 43.96875 247.25 C40.59986562 250.28674085 37.44109404 253.52828572 34.25 256.75 C29.24385582 261.79961198 24.19317932 266.67005617 18.75 271.25 C16.66821329 273.11982297 14.58680473 274.98992919 12.51171875 276.8671875 C8.49447829 280.0204095 3.60976292 279.81886857 -1.25 279.25 C-6.36730574 277.04426477 -9.63800511 274.08200458 -13.45703125 270.0859375 C-15.19415027 268.30718818 -16.9901101 266.68263597 -18.875 265.0625 C-22.72938255 261.73371507 -26.49823753 258.31843323 -30.25 254.875 C-30.83861816 254.3385083 -31.42723633 253.8020166 -32.03369141 253.24926758 C-33.45875158 251.93717719 -34.8571022 250.59618476 -36.25 249.25 C-36.25 248.92 -36.25 248.59 -36.25 248.25 C-34.3628125 248.0334375 -34.3628125 248.0334375 -32.4375 247.8125 C-21.69211216 245.32637766 -13.52170677 234.71420392 -6.08374023 227.09912109 C-2.25363184 223.18462784 1.68708632 219.51049628 5.8371582 215.93798828 C8.77888467 213.34206017 11.50938992 210.55489599 14.25 207.75 C18.23521019 203.7146327 22.26519149 199.85576993 26.59375 196.1875 C30.20085354 192.9463345 33.56178895 189.45737621 36.97045898 186.01000977 C40.41036521 182.54613554 43.9355385 179.27875066 47.66015625 176.12109375 C50.46910583 173.60616506 53.10108098 170.93164192 55.75 168.25 C58.93287752 165.02790033 62.09690158 161.85947514 65.5625 158.9375 C69.72477186 155.33433929 73.76242225 151.60712296 77.75 147.8125 C78.77637573 146.88087036 78.77637573 146.88087036 79.82348633 145.93041992 C82.86771642 142.98495081 85.20092968 140.61876361 85.625 136.27734375 C85.10868094 130.95647872 81.43585567 127.79041901 77.75 124.25 C77.10691895 123.61562012 76.46383789 122.98124023 75.80126953 122.32763672 C73.83114132 120.4175824 71.82901011 118.5484452 69.8125 116.6875 C69.14798828 116.06681641 68.48347656 115.44613281 67.79882812 114.80664062 C64.48385265 111.72316683 61.13131386 108.69331968 57.71484375 105.72265625 C53.80535118 102.32232912 50.01999537 98.80355513 46.25 95.25 C40.57593007 89.91621583 40.57593007 89.91621583 34.75 84.75 C30.1142504 80.76488192 25.69634111 76.54433544 21.23828125 72.36328125 C18.11684678 69.44121984 14.99295072 66.53779975 11.75 63.75 C7.81041849 60.36334221 4.03872603 56.80310989 0.25 53.25 C-4.26533444 49.01739165 -8.7833856 44.80535637 -13.48046875 40.7734375 C-14.78785687 39.64787157 -16.07992203 38.50445082 -17.36328125 37.3515625 C-18.06839844 36.71992187 -18.77351563 36.08828125 -19.5 35.4375 C-20.12390625 34.87417969 -20.7478125 34.31085937 -21.390625 33.73046875 C-24.91927597 30.92089161 -27.48432925 29.99218615 -32 30.125 C-33.19882813 30.15207031 -33.19882813 30.15207031 -34.421875 30.1796875 C-35.02515625 30.20289062 -35.6284375 30.22609375 -36.25 30.25 C-29.2694084 21.83749218 -21.56642262 14.33248187 -13.25 7.25 C-12.59515625 6.67894531 -11.9403125 6.10789062 -11.265625 5.51953125 C-5.03834078 0.10282328 -5.03834078 0.10282328 0 0 Z " fill="#6A76A5" transform="translate(164.25,22.75)"/>
<path d="M0 0 C5.19486512 2.98852326 9.31779099 6.9303088 13.625 11.0625 C15.05027726 12.41459397 16.47606236 13.7661528 17.90234375 15.1171875 C18.59956543 15.77944336 19.29678711 16.44169922 20.01513672 17.12402344 C22.71346053 19.67432112 25.44617503 22.18344017 28.1875 24.6875 C32.28084416 28.42682521 36.36499947 32.17551626 40.4375 35.9375 C40.97785889 36.43660889 41.51821777 36.93571777 42.07495117 37.44995117 C43.16964892 38.46120612 44.26429396 39.47251812 45.35888672 40.48388672 C46.99020187 41.99094817 48.62195809 43.4975303 50.25390625 45.00390625 C51.05828125 45.74640625 51.05828125 45.74640625 51.87890625 46.50390625 C52.95557906 47.49755851 54.03240087 48.49104934 55.109375 49.484375 C57.90910125 52.0671733 60.70527131 54.65367469 63.49609375 57.24609375 C64.07230469 57.78041016 64.64851562 58.31472656 65.2421875 58.86523438 C66.33316803 59.87703084 67.42309811 60.88996176 68.51171875 61.90429688 C71.0692844 64.2740001 73.65689508 66.54265609 76.37890625 68.72265625 C77.24386719 69.47417969 78.10882813 70.22570312 79 71 C79 71.66 79 72.32 79 73 C79.58265625 73.25523437 80.1653125 73.51046875 80.765625 73.7734375 C84.76034748 75.9663446 87.54726898 79.19357591 90 83 C91.39836193 88.27832389 89.61969584 92.41990817 87 97 C84.80078125 99.52734375 84.80078125 99.52734375 82.3125 101.9375 C81.42175781 102.80246094 80.53101563 103.66742188 79.61328125 104.55859375 C76.82192044 107.1663673 73.96557771 109.67458679 71.0625 112.15625 C67.70964151 115.15350228 64.60106244 118.39159634 61.44140625 121.58984375 C58.72797273 124.26854532 55.89222977 126.74608118 52.99609375 129.22265625 C50.73867374 131.23268777 48.62264287 133.34832953 46.5 135.5 C43.77170593 138.26560408 41.01483166 140.91287031 38.0625 143.4375 C34.8896408 146.15619248 31.93661618 149.02751675 29 152 C25.46078083 155.58244627 21.83398252 158.94570076 18.00390625 162.2109375 C15.6900568 164.27671342 13.54085376 166.4674095 11.375 168.6875 C6.15184216 173.97369595 1.42920571 178.05845439 -6.3125 178.3125 C-7.42044922 178.36857422 -7.42044922 178.36857422 -8.55078125 178.42578125 C-15.18288993 177.27283094 -20.22048766 171.16165065 -24.875 166.6875 C-26.39172377 165.24457793 -27.9086557 163.80187463 -29.42578125 162.359375 C-30.18971191 161.63041016 -30.95364258 160.90144531 -31.74072266 160.15039062 C-35.1629478 156.89310091 -38.61222766 153.66502242 -42.0625 150.4375 C-43.3868102 149.19671219 -44.7110289 147.9558267 -46.03515625 146.71484375 C-46.68887207 146.10237793 -47.34258789 145.48991211 -48.01611328 144.85888672 C-51.34475113 141.73997846 -54.67230641 138.61991565 -58 135.5 C-58.9890332 134.5728418 -58.9890332 134.5728418 -59.99804688 133.62695312 C-63.34423809 130.4901033 -66.69005108 127.35285172 -70.03515625 124.21484375 C-70.70135986 123.59029297 -71.36756348 122.96574219 -72.05395508 122.32226562 C-73.38454416 121.07367589 -74.71382692 119.82369246 -76.04174805 118.57226562 C-79.40603204 115.40646815 -82.79421817 112.27472988 -86.234375 109.19140625 C-86.91878662 108.57144775 -87.60319824 107.95148926 -88.30834961 107.31274414 C-89.60257941 106.14211967 -90.90497694 104.98043395 -92.21704102 103.82983398 C-96.21871163 100.18999602 -98.29972588 97.16176409 -100 92 C-100.16909319 87.34993739 -99.09117182 84.73582607 -96.1875 81.25 C-92.15514254 76.9809252 -87.80173424 73.04998999 -83.44140625 69.12109375 C-79.5773317 65.63405715 -75.78961901 62.06754643 -72 58.5 C-66.38895651 53.22585693 -60.74088264 47.99777087 -55.0546875 42.8046875 C-51.53459209 39.58160739 -48.04869821 36.32215506 -44.5625 33.0625 C-39.32283175 28.16366648 -34.07346944 23.27601612 -28.79345703 18.4206543 C-25.99535371 15.84714355 -23.20994201 13.26157678 -20.44140625 10.65625 C-19.85504395 10.10727051 -19.26868164 9.55829102 -18.66455078 8.99267578 C-17.54355377 7.94267207 -16.42583345 6.88915501 -15.31201172 5.83154297 C-10.23313007 1.08877567 -7.06570522 -0.73093502 0 0 Z M-24.15625 36.15405273 C-25.94821309 37.94815138 -27.79964575 39.60587313 -29.72265625 41.2578125 C-33.87233963 44.86275164 -37.8824251 48.59779018 -41.875 52.375 C-46.27635379 56.52070296 -50.68232561 60.65422604 -55.1875 64.6875 C-55.94675781 65.368125 -56.70601562 66.04875 -57.48828125 66.75 C-58.86292749 67.98140938 -60.23794726 69.21240408 -61.61474609 70.44140625 C-63.37424979 72.01681601 -65.12511681 73.60141699 -66.875 75.1875 C-67.42309326 75.67500732 -67.97118652 76.16251465 -68.53588867 76.66479492 C-73.08612407 80.81037761 -76.66323987 84.64267907 -77.5625 90.9375 C-77.26169431 95.60883539 -75.2177541 98.71887656 -72 102 C-69.46269885 104.18990636 -66.85860352 106.27252957 -64.2265625 108.34765625 C-60.46745663 111.36924572 -56.9967731 114.68226521 -53.5 118 C-48.46062605 122.7687993 -43.31589075 127.25654743 -37.88671875 131.58203125 C-33.57963225 135.18972617 -29.52531586 139.05943028 -25.4765625 142.953125 C-18.06932739 150.40521104 -18.06932739 150.40521104 -8.8046875 154.7265625 C-7.83789062 154.69304687 -6.87109375 154.65953125 -5.875 154.625 C-4.90304688 154.61726562 -3.93109375 154.60953125 -2.9296875 154.6015625 C3.63659455 153.25328592 8.24184268 148.1112968 12.9375 143.625 C14.26942293 142.36707279 15.6014573 141.10926358 16.93359375 139.8515625 C17.60890137 139.2112207 18.28420898 138.57087891 18.97998047 137.91113281 C22.13752258 134.9237942 25.31928112 131.96261483 28.5 129 C29.74883347 127.83478068 30.99753102 126.66941567 32.24609375 125.50390625 C32.86468262 124.92656738 33.48327148 124.34922852 34.12060547 123.75439453 C36.00908084 121.99152313 37.89716539 120.22823403 39.78515625 118.46484375 C40.72270752 117.58953003 40.72270752 117.58953003 41.67919922 116.6965332 C42.92494801 115.5329838 44.17007558 114.36876889 45.41455078 113.20385742 C48.59782352 110.22716503 51.79569069 107.26868813 55.01953125 104.3359375 C55.66656006 103.74433838 56.31358887 103.15273926 56.98022461 102.54321289 C58.21504804 101.41530885 59.45396146 100.29186125 60.69750977 99.17358398 C64.00368563 96.14586364 65.7260622 94.27368373 66.2734375 89.73046875 C66.44671502 85.3918663 66.43706414 82.73848768 64.1875 78.9375 C60.75553618 75.48625548 56.82531813 72.5215628 53.02734375 69.48828125 C49.91015632 66.9261543 46.9490172 64.25085243 44 61.5 C40.26717915 58.02536042 36.47623952 54.69927318 32.5 51.5 C28.52365433 48.30064142 24.73376534 44.97371702 21 41.5 C8.51016614 28.60237262 8.51016614 28.60237262 -7.6015625 23.45703125 C-14.36425368 24.9879988 -19.50127352 31.32294586 -24.15625 36.15405273 Z " fill="#6B7CA9" transform="translate(119,71)"/>
<path d="M0 0 C0.71414062 0.0103125 1.42828125 0.020625 2.1640625 0.03125 C7.73635356 1.21265446 11.88877428 5.48294449 16.0625 9.125 C16.67971924 9.65843018 17.29693848 10.19186035 17.93286133 10.74145508 C21.51547945 13.84756963 25.05311594 16.99868467 28.5625 20.1875 C31.8758308 23.19814479 35.26441929 26.06565178 38.75 28.875 C43.29776473 32.5516436 47.60310881 36.41470442 51.87646484 40.40039062 C56.08091566 44.29659725 60.48537459 47.89591821 65 51.4296875 C68.23855731 54.252772 71.01266293 56.6740494 71.87109375 61 C71.85175781 61.825 71.83242187 62.65 71.8125 63.5 C71.81056641 64.7375 71.81056641 64.7375 71.80859375 66 C70.6530642 72.66251271 65.37128773 76.58647344 60.625 80.9375 C59.86783691 81.64052246 59.11067383 82.34354492 58.33056641 83.06787109 C56.76910974 84.51716633 55.2054598 85.96410206 53.63964844 87.40869141 C50.94347532 89.89849508 48.26208657 92.40374822 45.58227539 94.91113281 C43.74563096 96.6290867 41.90639895 98.34422696 40.06640625 100.05859375 C37.55114327 102.40255923 35.03829382 104.74907122 32.52734375 107.09765625 C29.40745635 110.01566161 26.28318946 112.92890939 23.15625 115.83935547 C21.40289639 117.47399243 19.65455456 119.11387283 17.90625 120.75390625 C16.83360364 121.75289449 15.76070092 122.75160755 14.6875 123.75 C13.75550781 124.62140625 12.82351562 125.4928125 11.86328125 126.390625 C6.96707889 130.54125181 2.96050153 131.25228938 -3.4140625 131.12109375 C-9.53280444 129.93754148 -13.27679893 125.72294425 -17.625 121.5 C-18.6857329 120.51231851 -19.74963684 119.52803352 -20.81640625 118.546875 C-22.48036676 117.01641629 -24.14197289 115.48412751 -25.79321289 113.93994141 C-29.09465362 110.85950742 -32.46858569 107.94384406 -36 105.125 C-41.27394294 100.89662009 -46.15356438 96.31908324 -51.0534668 91.67041016 C-54.84953965 88.09001773 -58.71870234 84.7356852 -62.8125 81.5 C-70.98724242 74.89451617 -70.98724242 74.89451617 -71.98828125 69.56640625 C-72.32975538 64.40526872 -70.97214132 61.51656959 -67.625 57.5 C-63.37249345 52.91820644 -58.81728097 48.74400297 -54.08203125 44.671875 C-50.74357539 41.72087109 -47.50004021 38.6727422 -44.25 35.625 C-39.31453284 30.99826386 -34.34386272 26.42283914 -29.29296875 21.921875 C-27.14759217 19.97438821 -25.03129874 18.00567691 -22.92578125 16.015625 C-21.93868164 15.08459961 -21.93868164 15.08459961 -20.93164062 14.13476562 C-19.63912814 12.91314511 -18.34985164 11.68808806 -17.06445312 10.45898438 C-5.72500727 -0.2498185 -5.72500727 -0.2498185 0 0 Z M-5.0625 11.25 C-5.75730469 11.889375 -6.45210937 12.52875 -7.16796875 13.1875 C-7.97878906 13.950625 -8.78960937 14.71375 -9.625 15.5 C-10.6199551 16.41790244 -11.61612204 17.33449246 -12.61328125 18.25 C-14.83532047 20.29196518 -17.05243028 22.33907702 -19.265625 24.390625 C-22.37516846 27.27168306 -25.49765915 30.13828598 -28.625 33 C-31.70274307 35.81770933 -34.77758317 38.63844216 -37.84375 41.46875 C-38.38491455 41.96826172 -38.9260791 42.46777344 -39.48364258 42.98242188 C-40.5707227 43.98752228 -41.6565166 44.99401573 -42.7409668 46.00195312 C-45.49932901 48.56135288 -48.27992793 51.08618561 -51.11328125 53.5625 C-51.67144531 54.05621094 -52.22960938 54.54992187 -52.8046875 55.05859375 C-53.86825095 55.9974811 -54.93956434 56.92768444 -56.01953125 57.84765625 C-57.64158698 59.24428541 -57.64158698 59.24428541 -59.625 61.5 C-60.07927902 65.42481262 -60.07927902 65.42481262 -57.9375 67.3125 C-55.70587109 68.69227884 -55.70587109 68.69227884 -53.25 68.4375 C-49.76418477 67.19256599 -47.41396905 65.97204075 -44.625 63.5 C-43.85458663 60.76901745 -43.76592553 58.3654858 -43.625 55.5 C-42.625 54.5 -42.625 54.5 -40.77734375 54.40234375 C-38.7265625 54.43489583 -36.67578125 54.46744792 -34.625 54.5 C-34.44066406 55.11488281 -34.25632812 55.72976562 -34.06640625 56.36328125 C-32.34444045 61.3228491 -32.34444045 61.3228491 -28.56640625 64.73046875 C-26.26022307 65.4966038 -24.01080319 66.04437786 -21.625 66.5 C-20.51125 66.78875 -19.3975 67.0775 -18.25 67.375 C-17.38375 67.41625 -16.5175 67.4575 -15.625 67.5 C-14.60395449 66.52149805 -13.6043879 65.52019573 -12.625 64.5 C-9.44865485 64.10295686 -7.48496999 64.00066259 -4.6875 65.625 C-3.625 67.5 -3.625 67.5 -3.75 70.5 C-4.61727971 73.47353044 -5.23310938 74.6280856 -7.625 76.5 C-6.97699575 78.17401097 -6.30334587 79.83805262 -5.625 81.5 C-5.39167969 82.24765625 -5.15835938 82.9953125 -4.91796875 83.765625 C-4.02586979 86.29120197 -3.19686044 88.32457989 -1.625 90.5 C1.34382517 91.8177417 4.17411137 92.13641022 7.375 92.5 C8.375 93.5 8.375 93.5 8.5625 96.9375 C8.375 100.5 8.375 100.5 6.375 102.5 C5.240625 102.603125 4.10625 102.70625 2.9375 102.8125 C-0.7163243 103.13554506 -0.7163243 103.13554506 -2.5625 105.75 C-3.70483835 108.70664044 -4.01121165 110.36739436 -3.625 113.5 C-1.90929733 115.60434862 -1.90929733 115.60434862 0.375 117.3125 C1.48875 118.21935547 1.48875 118.21935547 2.625 119.14453125 C3.2025 119.59183594 3.78 120.03914063 4.375 120.5 C10.16360598 116.52235455 15.0222302 111.96931504 19.92578125 106.953125 C22.67433779 104.2001848 25.55801734 101.67204729 28.51171875 99.14453125 C30.98993052 96.95726258 33.27864167 94.60720121 35.59375 92.25 C38.09396185 89.79365151 40.75180516 87.53690632 43.40625 85.25 C45.9086042 83.02568516 48.23329604 80.65347834 50.578125 78.265625 C53.14079871 75.74751953 55.84956431 73.41377295 58.578125 71.078125 C59.17109375 70.55734375 59.7640625 70.0365625 60.375 69.5 C61.23351562 68.81164062 61.23351562 68.81164062 62.109375 68.109375 C63.55809557 66.51467356 63.55809557 66.51467356 63.86328125 64.109375 C63.16753658 60.39131547 61.41157005 59.18864457 58.5625 56.75 C57.81589111 56.1010376 57.81589111 56.1010376 57.05419922 55.43896484 C52.87190463 51.8309948 48.55727918 48.38058407 44.2578125 44.9140625 C40.44780219 41.72356606 36.83975671 38.34002858 33.21362305 34.9440918 C29.01101078 31.03049866 24.63333587 27.39737721 20.15234375 23.8046875 C16.42494711 20.71162981 12.87845169 17.44059605 9.34545898 14.12866211 C4.53071852 9.63408759 0.57033798 5.98097561 -5.0625 11.25 Z " fill="#FBFCFD" transform="translate(113.625,94.5)"/>
<path d="M0 0 C3.17625 -0.04125 6.3525 -0.0825 9.625 -0.125 C10.6145166 -0.14320801 11.6040332 -0.16141602 12.62353516 -0.18017578 C18.9067191 -0.21954888 23.71700475 0.13209479 28.75 4.25 C32.63924512 9.00352182 33.46863251 13.6796371 33.31640625 19.6875 C32.61631536 24.80421366 30.57702752 28.77780367 26.5 31.9375 C22.65134614 33.57317789 19.41228656 34.12443773 15.234375 34.09765625 C14.43225586 34.09515869 13.63013672 34.09266113 12.80371094 34.09008789 C11.79598633 34.08098389 10.78826172 34.07187988 9.75 34.0625 C6.5325 34.041875 3.315 34.02125 0 34 C0 22.78 0 11.56 0 0 Z " fill="#682982" transform="translate(25,305)"/>
<path d="M0 0 C3.3 0 6.6 0 10 0 C11.32 4.62 12.64 9.24 14 14 C14.639375 11.875625 15.27875 9.75125 15.9375 7.5625 C17.875 1.125 17.875 1.125 19 0 C20.51928038 -0.07179964 22.04167482 -0.08392007 23.5625 -0.0625 C24.38878906 -0.05347656 25.21507813 -0.04445313 26.06640625 -0.03515625 C26.70449219 -0.02355469 27.34257813 -0.01195312 28 0 C28.26554687 0.60328125 28.53109375 1.2065625 28.8046875 1.828125 C29.15789062 2.62734375 29.51109375 3.4265625 29.875 4.25 C30.22304687 5.03890625 30.57109375 5.8278125 30.9296875 6.640625 C31.90214201 8.78428385 32.94729482 10.89458963 34 13 C34.99 8.71 35.98 4.42 37 0 C40.3 0 43.6 0 47 0 C44.286575 8.44176667 41.14265947 16.71110853 38 25 C35.03 25 32.06 25 29 25 C28.35309078 23.3962669 27.70751236 21.79199694 27.0625 20.1875 C26.52302734 18.84751953 26.52302734 18.84751953 25.97265625 17.48046875 C25.26386514 15.6729091 24.6139753 13.84192591 24 12 C23.35309078 13.6037331 22.70751236 15.20800306 22.0625 16.8125 C21.70285156 17.70582031 21.34320313 18.59914063 20.97265625 19.51953125 C20.26386514 21.3270909 19.6139753 23.15807409 19 25 C16.03 25 13.06 25 10 25 C6.08368734 16.83407148 2.9352275 8.55587591 0 0 Z " fill="#692B84" transform="translate(97,314)"/>
<path d="M0 0 C1.010625 -0.02578125 2.02125 -0.0515625 3.0625 -0.078125 C6.43942842 0.29908509 8.28014341 1.24896265 11 3.25 C12.20270964 5.65541929 12.20316663 7.35366591 12.31640625 10.0390625 C12.35830078 10.98007812 12.40019531 11.92109375 12.44335938 12.890625 C12.48267578 13.87546875 12.52199219 14.8603125 12.5625 15.875 C12.60568359 16.86757813 12.64886719 17.86015625 12.69335938 18.8828125 C12.79961069 21.33839838 12.90164964 23.79408703 13 26.25 C8.66666667 26.25 4.33333333 26.25 0 26.25 C-0.66 26.58 -1.32 26.91 -2 27.25 C-7.40440735 27.60438737 -10.53668852 27.63129657 -15 24.25 C-16 23.25 -16 23.25 -16.375 19.9375 C-16 16.25 -16 16.25 -13.90234375 14.12890625 C-10.63834748 12.01587502 -7.9864472 11.26746408 -4.1875 10.5 C-3.02605469 10.25765625 -1.86460937 10.0153125 -0.66796875 9.765625 C0.21246094 9.59546875 1.09289062 9.4253125 2 9.25 C2 8.59 2 7.93 2 7.25 C-0.91652174 7.08318891 -0.91652174 7.08318891 -4 7.25 C-4.66 7.91 -5.32 8.57 -6 9.25 C-12.32258065 9.58870968 -12.32258065 9.58870968 -15 8.25 C-14.43877278 4.99488211 -13.66879905 3.25159929 -11 1.25 C-7.32100437 0.31738747 -3.7880388 0.05798019 0 0 Z " fill="#6A2B84" transform="translate(248,312.75)"/>
<path d="M0 0 C2.88326027 2.67229001 4.23239857 4.6802738 5.5625 8.375 C5.5625 10.355 5.5625 12.335 5.5625 14.375 C-1.0375 14.375 -7.6375 14.375 -14.4375 14.375 C-14.1075 15.365 -13.7775 16.355 -13.4375 17.375 C-10.42895026 18.00469646 -8.03539671 18.49764548 -5 17.875 C-1.63828027 17.21905469 1.21440207 17.78415919 4.5625 18.375 C1.66457246 22.61043256 -0.39537766 24.3083972 -5.4375 25.375 C-12.36936075 25.92514768 -17.3243844 24.92935126 -22.875 20.375 C-25.27610005 15.7648879 -25.29472518 11.458718 -24.4375 6.375 C-22.7484081 2.7380617 -20.32305656 0.82807545 -16.75 -1 C-10.76048258 -2.13009763 -5.60746763 -2.65080288 0 0 Z " fill="#692A83" transform="translate(221.4375,314.625)"/>
<path d="M0 0 C2.88326027 2.67229001 4.23239857 4.6802738 5.5625 8.375 C5.5625 10.355 5.5625 12.335 5.5625 14.375 C-1.0375 14.375 -7.6375 14.375 -14.4375 14.375 C-14.1075 15.365 -13.7775 16.355 -13.4375 17.375 C-10.42895026 18.00469646 -8.03539671 18.49764548 -5 17.875 C-1.63828027 17.21905469 1.21440207 17.78415919 4.5625 18.375 C1.66457246 22.61043256 -0.39537766 24.3083972 -5.4375 25.375 C-12.36936075 25.92514768 -17.3243844 24.92935126 -22.875 20.375 C-25.27610005 15.7648879 -25.29472518 11.458718 -24.4375 6.375 C-22.7484081 2.7380617 -20.32305656 0.82807545 -16.75 -1 C-10.76048258 -2.13009763 -5.60746763 -2.65080288 0 0 Z " fill="#692A83" transform="translate(88.4375,314.625)"/>
<path d="M0 0 C5.17511066 4.77858941 8.58517707 9.24490016 9.2109375 16.41796875 C9.40420199 21.45027867 9.27351538 24.90810577 6 29 C-0.44623981 24.44971308 -6.11826751 19.29143363 -11.8671875 13.9140625 C-14.98433529 10.99983934 -18.17564891 8.18115716 -21.4140625 5.40234375 C-23.00844351 3.99253394 -24.51127265 2.52030642 -26 1 C-17.44831396 -5.02505153 -8.83902034 -6.31610635 0 0 Z " fill="#6F68A4" transform="translate(89,174)"/>
<path d="M0 0 C1.875 2.1875 1.875 2.1875 2.875 5.1875 C-0.425 5.5175 -3.725 5.8475 -7.125 6.1875 C-7.455 5.5275 -7.785 4.8675 -8.125 4.1875 C-9.775 4.1875 -11.425 4.1875 -13.125 4.1875 C-13.125 4.8475 -13.125 5.5075 -13.125 6.1875 C-11.78695313 6.44273437 -11.78695313 6.44273437 -10.421875 6.703125 C-9.25140625 6.94546875 -8.0809375 7.1878125 -6.875 7.4375 C-5.13476562 7.78554688 -5.13476562 7.78554688 -3.359375 8.140625 C0.13723138 9.27237682 1.64302208 10.30543143 3.875 13.1875 C4.375 16.1875 4.375 16.1875 3.875 19.1875 C1.17596193 22.92462963 -1.69059843 24.18348455 -6.125 25.1875 C-12.17375372 25.81665869 -16.83705292 25.2721358 -22.125 22.1875 C-23.0625 20 -23.0625 20 -23.125 18.1875 C-20.11175805 16.68087903 -17.44213623 17.00979627 -14.125 17.1875 C-13.465 17.8475 -12.805 18.5075 -12.125 19.1875 C-9.54145782 19.35437448 -9.54145782 19.35437448 -7.125 19.1875 C-6.795 18.1975 -6.465 17.2075 -6.125 16.1875 C-7.01703125 16.01734375 -7.9090625 15.8471875 -8.828125 15.671875 C-9.99859375 15.42953125 -11.1690625 15.1871875 -12.375 14.9375 C-13.53515625 14.70546875 -14.6953125 14.4734375 -15.890625 14.234375 C-19.39182887 13.1011351 -20.93592788 12.11890599 -23.125 9.1875 C-23.125 5.35081059 -23.02874521 3.12240884 -20.3125 0.3125 C-14.22463595 -2.81840151 -5.94332898 -3.44713081 0 0 Z " fill="#6B2E85" transform="translate(313.125,314.8125)"/>
<path d="M0 0 C0 2.97 0 5.94 0 9 C1.65 9 3.3 9 5 9 C5 11.31 5 13.62 5 16 C3.35 16 1.7 16 0 16 C0.33 19.96 0.66 23.92 1 28 C2.32 28.33 3.64 28.66 5 29 C5 30.65 5 32.3 5 34 C2.70013269 35.14993366 1.18530912 35.2316929 -1.375 35.3125 C-2.14585937 35.34988281 -2.91671875 35.38726562 -3.7109375 35.42578125 C-7.01658642 34.81090799 -8.07719311 33.74500259 -10 31 C-10.2911521 28.26317029 -10.38322418 25.96059961 -10.25 23.25 C-10.23195313 22.55261719 -10.21390625 21.85523438 -10.1953125 21.13671875 C-10.14838554 19.42388461 -10.07664605 17.71176176 -10 16 C-11.32 16 -12.64 16 -14 16 C-14 13.69 -14 11.38 -14 9 C-12.68 9 -11.36 9 -10 9 C-10 7.35 -10 5.7 -10 4 C-8.52184338 3.3310968 -7.04244528 2.66493641 -5.5625 2 C-4.73878906 1.62875 -3.91507812 1.2575 -3.06640625 0.875 C-1 0 -1 0 0 0 Z " fill="#682982" transform="translate(279,305)"/>
<path d="M0 0 C0 2.97 0 5.94 0 9 C1.65 9 3.3 9 5 9 C5 11.31 5 13.62 5 16 C3.35 16 1.7 16 0 16 C0.33 19.96 0.66 23.92 1 28 C2.32 28.33 3.64 28.66 5 29 C5 30.65 5 32.3 5 34 C2.70013269 35.14993366 1.18530912 35.2316929 -1.375 35.3125 C-2.14585937 35.34988281 -2.91671875 35.38726562 -3.7109375 35.42578125 C-7.01658642 34.81090799 -8.07719311 33.74500259 -10 31 C-10.2911521 28.26317029 -10.38322418 25.96059961 -10.25 23.25 C-10.23195312 22.55261719 -10.21390625 21.85523438 -10.1953125 21.13671875 C-10.14838554 19.42388461 -10.07664605 17.71176176 -10 16 C-11.32 16 -12.64 16 -14 16 C-14 13.69 -14 11.38 -14 9 C-12.68 9 -11.36 9 -10 9 C-10 7.35 -10 5.7 -10 4 C-8.52184338 3.3310968 -7.04244528 2.66493641 -5.5625 2 C-4.73878906 1.62875 -3.91507813 1.2575 -3.06640625 0.875 C-1 0 -1 0 0 0 Z " fill="#682982" transform="translate(161,305)"/>
<path d="M0 0 C0.625 1.8125 0.625 1.8125 1 4 C-1.42668707 7.64003061 -2.96302815 7.71160473 -7 9 C-8.52106634 12.04213267 -8.37429338 15.28047572 -8.5625 18.625 C-8.60568359 19.33140625 -8.64886719 20.0378125 -8.69335938 20.765625 C-8.79944751 22.51018537 -8.90022889 24.25506697 -9 26 C-12.3 26 -15.6 26 -19 26 C-19 17.75 -19 9.5 -19 1 C-16.03 1 -13.06 1 -10 1 C-9.67 1.66 -9.34 2.32 -9 3 C-8.62875 2.505 -8.2575 2.01 -7.875 1.5 C-5.25305607 -0.59755514 -3.26157528 -0.21743835 0 0 Z " fill="#692A83" transform="translate(192,313)"/>
<path d="M0 0 C7 0 7 0 9.4375 1.9375 C11.49846695 5.97699523 11.71897471 9.53566867 11 14 C9 17 9 17 6.8359375 17.51171875 C4.55729167 17.67447917 2.27864583 17.83723958 0 18 C0 12.06 0 6.12 0 0 Z " fill="#F9F7FA" transform="translate(36,313)"/>
<path d="M0 0 C1.32 0 2.64 0 4 0 C4.66 1.98 5.32 3.96 6 6 C8.10232344 3.1315587 8.10232344 3.1315587 9 0 C9.99 0 10.98 0 12 0 C12 3.96 12 7.92 12 12 C11.34 12 10.68 12 10 12 C9.67 10.35 9.34 8.7 9 7 C8.34 8.65 7.68 10.3 7 12 C6.34 12 5.68 12 5 12 C4.34 9.69 3.68 7.38 3 5 C2.67 7.31 2.34 9.62 2 12 C1.34 12 0.68 12 0 12 C0 8.04 0 4.08 0 0 Z " fill="#88BCC8" transform="translate(26,343)"/>
<path d="M0 0 C0.66 0 1.32 0 2 0 C2 3.96 2 7.92 2 12 C-0.31 12 -2.62 12 -5 12 C-6.35439668 9.29120665 -6.06501451 6.99066732 -6 4 C-4.02 3.67 -2.04 3.34 0 3 C0 2.01 0 1.02 0 0 Z " fill="#89BCC8" transform="translate(260,343)"/>
<path d="M0 0 C0.66 0 1.32 0 2 0 C2 3.96 2 7.92 2 12 C0.02 12 -1.96 12 -4 12 C-6 10 -6 10 -6.25 7.5 C-6 5 -6 5 -4 3 C-2.68 3 -1.36 3 0 3 C0 2.01 0 1.02 0 0 Z " fill="#7FB7C4" transform="translate(314,343)"/>
<path d="M0 0 C2.375 0.75 2.375 0.75 3.375 1.75 C3.5625 4.1875 3.5625 4.1875 3.375 6.75 C2.715 7.41 2.055 8.07 1.375 8.75 C-1.75 8.375 -1.75 8.375 -4.625 7.75 C-5.3125 5.4375 -5.3125 5.4375 -5.625 2.75 C-3.9659358 -0.015107 -3.22812218 -0.30744021 0 0 Z " fill="#B2D4DB" transform="translate(207.625,346.25)"/>
<path d="M0 0 C1 1 1 1 1.1875 3.4375 C1 6 1 6 -1 8 C-4.125 7.625 -4.125 7.625 -7 7 C-7 4.69 -7 2.38 -7 0 C-4.31633121 -1.3418344 -2.84719317 -0.73004953 0 0 Z " fill="#B2D4DB" transform="translate(91,347)"/>
<path d="M0 0 C1.81242052 -0.02687279 3.62495233 -0.04633715 5.4375 -0.0625 C6.44683594 -0.07410156 7.45617187 -0.08570313 8.49609375 -0.09765625 C11 0 11 0 12 1 C12.14115161 3.67058851 12.04247107 6.32432238 12 9 C11.34 9 10.68 9 10 9 C10 6.36 10 3.72 10 1 C9.01 1.495 9.01 1.495 8 2 C7.59270772 4.32156597 7.25561323 6.6568787 7 9 C6.34 9 5.68 9 5 9 C5 6.36 5 3.72 5 1 C4.01 1.495 4.01 1.495 3 2 C2.59270772 4.32156597 2.25561323 6.6568787 2 9 C1.34 9 0.68 9 0 9 C0 6.03 0 3.06 0 0 Z " fill="#82B8C5" transform="translate(274,346)"/>
<path d="M0 0 C1.66611905 -0.042721 3.33382885 -0.04063832 5 0 C6 1 6 1 6.09765625 2.84765625 C6.04882812 5.92382812 6.04882812 5.92382812 6 9 C3.69 9 1.38 9 -1 9 C-1.33 7.68 -1.66 6.36 -2 5 C1 3 1 3 4 3 C4 2.34 4 1.68 4 1 C2.35 1.66 0.7 2.32 -1 3 C-0.67 2.01 -0.34 1.02 0 0 Z " fill="#98C5CF" transform="translate(290,346)"/>
<path d="M0 0 C1.66611905 -0.042721 3.33382885 -0.04063832 5 0 C6 1 6 1 6.09765625 2.84765625 C6.04882812 5.92382812 6.04882812 5.92382812 6 9 C3.69 9 1.38 9 -1 9 C-1.33 7.68 -1.66 6.36 -2 5 C1 3 1 3 4 3 C4 2.34 4 1.68 4 1 C2.35 1.66 0.7 2.32 -1 3 C-0.67 2.01 -0.34 1.02 0 0 Z " fill="#98C5CF" transform="translate(42,346)"/>
<path d="M0 0 C3.125 0.375 3.125 0.375 6 1 C6.33 2.32 6.66 3.64 7 5 C4.69 5 2.38 5 0 5 C0.33 5.66 0.66 6.32 1 7 C2.65 6.67 4.3 6.34 6 6 C5.67 6.99 5.34 7.98 5 9 C2.625 9.125 2.625 9.125 0 9 C-2 7 -2 7 -2.25 4.5 C-2 2 -2 2 0 0 Z " fill="#97C4CF" transform="translate(61,346)"/>
<path d="M0 0 C2.625 0.375 2.625 0.375 5 1 C5.33 2.32 5.66 3.64 6 5 C4.02 5 2.04 5 0 5 C0.33 5.66 0.66 6.32 1 7 C2.65 6.67 4.3 6.34 6 6 C5.01 7.485 5.01 7.485 4 9 C-0.875 8.125 -0.875 8.125 -2 7 C-2.1875 4.5625 -2.1875 4.5625 -2 2 C-1.34 1.34 -0.68 0.68 0 0 Z " fill="#73B0BE" transform="translate(266,346)"/>
<path d="M0 0 C2.625 0.375 2.625 0.375 5 1 C5.33 2.32 5.66 3.64 6 5 C4.02 5 2.04 5 0 5 C0.33 5.66 0.66 6.32 1 7 C2.65 6.67 4.3 6.34 6 6 C5.01 7.485 5.01 7.485 4 9 C-0.875 8.125 -0.875 8.125 -2 7 C-2.1875 4.5625 -2.1875 4.5625 -2 2 C-1.34 1.34 -0.68 0.68 0 0 Z " fill="#73B0BE" transform="translate(221,346)"/>
<path d="M0 0 C2.625 0.375 2.625 0.375 5 1 C5.33 2.32 5.66 3.64 6 5 C4.02 5 2.04 5 0 5 C0.33 5.66 0.66 6.32 1 7 C2.65 6.67 4.3 6.34 6 6 C5.01 7.485 5.01 7.485 4 9 C-0.875 8.125 -0.875 8.125 -2 7 C-2.1875 4.5625 -2.1875 4.5625 -2 2 C-1.34 1.34 -0.68 0.68 0 0 Z " fill="#73B0BE" transform="translate(165,346)"/>
<path d="M0 0 C2.625 0.375 2.625 0.375 5 1 C5.33 2.32 5.66 3.64 6 5 C4.02 5 2.04 5 0 5 C0.33 5.66 0.66 6.32 1 7 C2.65 6.67 4.3 6.34 6 6 C5.01 7.485 5.01 7.485 4 9 C-0.875 8.125 -0.875 8.125 -2 7 C-2.1875 4.5625 -2.1875 4.5625 -2 2 C-1.34 1.34 -0.68 0.68 0 0 Z " fill="#73B0BE" transform="translate(146,346)"/>
<path d="M0 0 C2.625 0.375 2.625 0.375 5 1 C5.33 2.32 5.66 3.64 6 5 C4.02 5 2.04 5 0 5 C0.33 5.66 0.66 6.32 1 7 C2.65 6.67 4.3 6.34 6 6 C5.01 7.485 5.01 7.485 4 9 C-0.875 8.125 -0.875 8.125 -2 7 C-2.1875 4.5625 -2.1875 4.5625 -2 2 C-1.34 1.34 -0.68 0.68 0 0 Z " fill="#73B0BE" transform="translate(121,346)"/>
<path d="M0 0 C-0.75 4.75 -0.75 4.75 -3 7 C-5.625 7.125 -5.625 7.125 -8 7 C-8.33 5.68 -8.66 4.36 -9 3 C-3.375 0 -3.375 0 0 0 Z " fill="#EEE7F1" transform="translate(251,327)"/>
<path d="M0 0 C0.33 1.32 0.66 2.64 1 4 C-2.3 4 -5.6 4 -9 4 C-8.67 2.68 -8.34 1.36 -8 0 C-5.13822943 -1.43088528 -3.06624227 -0.59991697 0 0 Z " fill="#F6F3F8" transform="translate(216,320)"/>
<path d="M0 0 C0.33 1.32 0.66 2.64 1 4 C-2.3 4 -5.6 4 -9 4 C-8.67 2.68 -8.34 1.36 -8 0 C-5.13822943 -1.43088528 -3.06624227 -0.59991697 0 0 Z " fill="#F6F3F8" transform="translate(83,320)"/>
<path d="M0 0 C0.66 0 1.32 0 2 0 C2.66 1.32 3.32 2.64 4 4 C4.66 2.68 5.32 1.36 6 0 C6.66 0 7.32 0 8 0 C7.71640113 1.4391134 7.42278601 2.87625518 7.125 4.3125 C6.96257812 5.11300781 6.80015625 5.91351563 6.6328125 6.73828125 C6 9 6 9 4 12 C3.01 11.67 2.02 11.34 1 11 C1.66 11 2.32 11 3 11 C2.01 7.37 1.02 3.74 0 0 Z " fill="#86BBC7" transform="translate(74,346)"/>
<path d="M0 0 C5.75 -0.125 5.75 -0.125 8 1 C8 3.64 8 6.28 8 9 C7.34 9 6.68 9 6 9 C5.67 6.69 5.34 4.38 5 2 C4.34 2 3.68 2 3 2 C2.67 4.31 2.34 6.62 2 9 C1.34 9 0.68 9 0 9 C0 6.03 0 3.06 0 0 Z " fill="#80B7C4" transform="translate(173,346)"/>
<path d="M0 0 C0.66 0 1.32 0 2 0 C2.33 1.65 2.66 3.3 3 5 C4.32 4.34 5.64 3.68 7 3 C6.62875 3.7425 6.2575 4.485 5.875 5.25 C4.70484137 7.94283647 4.70484137 7.94283647 5.875 10.3125 C6.431875 11.1478125 6.431875 11.1478125 7 12 C4.00667261 11.0022242 3.05233685 10.2477975 1 8 C0.67 9.32 0.34 10.64 0 12 C0 8.04 0 4.08 0 0 Z " fill="#80B7C4" transform="translate(51,343)"/>
<path d="M0 0 C1.65 0 3.3 0 5 0 C5.33 0.66 5.66 1.32 6 2 C4.35 1.67 2.7 1.34 1 1 C1 1.66 1 2.32 1 3 C3.475 3.99 3.475 3.99 6 5 C5.67 6.32 5.34 7.64 5 9 C3.35 9 1.7 9 0 9 C-0.33 8.34 -0.66 7.68 -1 7 C1.475 7.495 1.475 7.495 4 8 C2.74458443 5.48916886 1.49936512 5.12874554 -1 4 C-0.67 2.68 -0.34 1.36 0 0 Z " fill="#81B8C5" transform="translate(111,346)"/>
<path d="M0 0 C1.99954746 -0.04254356 4.00041636 -0.04080783 6 0 C7 1 7 1 7.09765625 2.84765625 C7.06510417 4.8984375 7.03255208 6.94921875 7 9 C6.67 9 6.34 9 6 9 C5.67 6.69 5.34 4.38 5 2 C4.34 2 3.68 2 3 2 C2.67 4.31 2.34 6.62 2 9 C1.34 9 0.68 9 0 9 C0 6.03 0 3.06 0 0 Z " fill="#76B1BF" transform="translate(239,346)"/>
<path d="M0 0 C1.65 0 3.3 0 5 0 C5.66 1.65 6.32 3.3 7 5 C4.69 4.67 2.38 4.34 0 4 C0 2.68 0 1.36 0 0 Z " fill="#EDE6F0" transform="translate(300,318)"/>
<path d="M0 0 C0.33 0 0.66 0 1 0 C1.33 1.65 1.66 3.3 2 5 C3.98 4.67 5.96 4.34 8 4 C8 4.66 8 5.32 8 6 C7.21625 6.2475 6.4325 6.495 5.625 6.75 C2.67682892 8.15389099 2.0975223 9.00675737 1 12 C0.67 12 0.34 12 0 12 C0 8.04 0 4.08 0 0 Z " fill="#E6F1F3" transform="translate(38,343)"/>
<path d="M0 0 C0.99 0.33 1.98 0.66 3 1 C2.34 1 1.68 1 1 1 C1.33 1.99 1.66 2.98 2 4 C1.83988879 6.70123106 1.39559392 9.31875231 1 12 C0.34 12 -0.32 12 -1 12 C-1.2226746 10.56465159 -1.42761906 9.12654475 -1.625 7.6875 C-1.74101562 6.88699219 -1.85703125 6.08648437 -1.9765625 5.26171875 C-2 3 -2 3 0 0 Z " fill="#7FB6C4" transform="translate(135,343)"/>
<path d="M0 0 C0.66 0 1.32 0 2 0 C2 3.96 2 7.92 2 12 C1.01 11.67 0.02 11.34 -1 11 C-0.67 7.37 -0.34 3.74 0 0 Z " fill="#88BCC8" transform="translate(260,343)"/>
<path d="M0 0 C1.67542976 0.28604898 3.34385343 0.61781233 5 1 C5 1.99 5 2.98 5 4 C3.02 4 1.04 4 -1 4 C-1 1 -1 1 0 0 Z " fill="#B4D5DC" transform="translate(266,346)"/>
<path d="M0 0 C1.67542976 0.28604898 3.34385343 0.61781233 5 1 C5 1.99 5 2.98 5 4 C3.02 4 1.04 4 -1 4 C-1 1 -1 1 0 0 Z " fill="#B4D5DC" transform="translate(221,346)"/>
<path d="M0 0 C1.67542976 0.28604898 3.34385343 0.61781233 5 1 C5 1.99 5 2.98 5 4 C3.02 4 1.04 4 -1 4 C-1 1 -1 1 0 0 Z " fill="#B4D5DC" transform="translate(165,346)"/>
<path d="M0 0 C1.67542976 0.28604898 3.34385343 0.61781233 5 1 C5 1.99 5 2.98 5 4 C3.02 4 1.04 4 -1 4 C-1 1 -1 1 0 0 Z " fill="#B4D5DC" transform="translate(146,346)"/>
<path d="M0 0 C1.67542976 0.28604898 3.34385343 0.61781233 5 1 C5 1.99 5 2.98 5 4 C3.02 4 1.04 4 -1 4 C-1 1 -1 1 0 0 Z " fill="#B4D5DC" transform="translate(121,346)"/>
<path d="M0 0 C0.99 0.33 1.98 0.66 3 1 C3 2.65 3 4.3 3 6 C1.68 6 0.36 6 -1 6 C-1.042721 4.33388095 -1.04063832 2.66617115 -1 1 C-0.67 0.67 -0.34 0.34 0 0 Z " fill="#FEFEFE" transform="translate(311,347)"/>
<path d="M0 0 C0.66 0 1.32 0 2 0 C2.33 1.98 2.66 3.96 3 6 C1.68 6 0.36 6 -1 6 C-1.042721 4.33388095 -1.04063832 2.66617115 -1 1 C-0.67 0.67 -0.34 0.34 0 0 Z " fill="#FBFCFD" transform="translate(257,347)"/>
<path d="M0 0 C2.475 0.495 2.475 0.495 5 1 C5 3.64 5 6.28 5 9 C4.34 9 3.68 9 3 9 C2.87625 7.88625 2.7525 6.7725 2.625 5.625 C2.3534187 1.96896323 2.3534187 1.96896323 0 0 Z " fill="#86BAC7" transform="translate(196,346)"/>
</svg>
